<svg width="18" height="16" viewBox="0 0 18 16" fill="none" xmlns="http://www.w3.org/2000/svg">
<path d="M9 4.625C9.5625 2.40454 11.687 1.27075 16.3125 1.25C16.3865 1.24973 16.4597 1.26408 16.5281 1.29225C16.5965 1.32042 16.6586 1.36185 16.7109 1.41413C16.7632 1.46642 16.8046 1.52854 16.8328 1.59692C16.8609 1.66529 16.8753 1.73856 16.875 1.8125V11.9375C16.875 12.0867 16.8157 12.2298 16.7103 12.3353C16.6048 12.4407 16.4617 12.5 16.3125 12.5C11.8125 12.5 10.074 13.4074 9 14.75M9 4.625C8.4375 2.40454 6.31301 1.27075 1.6875 1.25C1.61356 1.24973 1.54029 1.26408 1.47192 1.29225C1.40354 1.32042 1.34142 1.36185 1.28913 1.41413C1.23685 1.46642 1.19542 1.52854 1.16725 1.59692C1.13908 1.66529 1.12473 1.73856 1.125 1.8125V11.8697C1.125 12.217 1.34016 12.5 1.6875 12.5C6.1875 12.5 7.93231 13.4141 9 14.75M9 4.625V14.75" stroke="#808080" stroke-linecap="round" stroke-linejoin="round"/>
</svg>
